<svg width="48" height="48" viewBox="0 0 48 48" fill="none" xmlns="http://www.w3.org/2000/svg">
<path d="M10.0646 29.8066H0.774232C0.346346 29.8066 0 30.1533 0 30.5809V43.7421C0 44.1697 0.346233 44.5164 0.774232 44.5164H10.0646C10.4924 44.5164 10.8388 44.1697 10.8388 43.7421V30.5808C10.8387 30.1532 10.4924 29.8066 10.0646 29.8066ZM9.29033 42.9679H1.54835V31.355H9.29033V42.9679Z" fill="#B69680"/>
<path d="M22.4516 10.4517H13.1613C12.7334 10.4517 12.3871 10.7983 12.3871 11.2259V43.742C12.3871 44.1696 12.7333 44.5163 13.1613 44.5163H22.4516C22.8795 44.5163 23.2259 44.1696 23.2259 43.742V11.2259C23.2259 10.7983 22.8796 10.4517 22.4516 10.4517ZM21.6775 42.9678H13.9355V12H21.6775V42.9678Z" fill="#B69680"/>
<path d="M24.7743 5.80664V44.5163H35.613V5.80664H24.7743ZM34.0646 42.968H26.3226V7.35499H34.0646V42.968Z" fill="#B69680"/>
<path d="M47.2257 23.6128H37.9354C37.5075 23.6128 37.1611 23.9595 37.1611 24.387V43.7419C37.1611 44.1695 37.5074 44.5161 37.9354 44.5161H47.2257C47.6536 44.5161 47.9999 44.1695 47.9999 43.7419V24.387C47.9998 23.9595 47.6536 23.6128 47.2257 23.6128ZM46.4515 42.9677H38.7095V25.1613H46.4515V42.9677Z" fill="#B69680"/>
<path d="M10.0646 27.4839H0.774232C0.346346 27.4839 0 27.8306 0 28.2581C0 28.6857 0.346233 29.0322 0.774232 29.0322H10.0646C10.4924 29.0322 10.8388 28.6856 10.8388 28.258C10.8388 27.8305 10.4924 27.4839 10.0646 27.4839Z" fill="#B69680"/>
<path d="M22.4516 8.12891H13.1613C12.7334 8.12891 12.3871 8.47559 12.3871 8.90314C12.3871 9.33068 12.7333 9.67737 13.1613 9.67737H22.4516C22.8795 9.67737 23.2259 9.33068 23.2259 8.90314C23.2259 8.47559 22.8796 8.12891 22.4516 8.12891Z" fill="#B69680"/>
<path d="M34.8388 3.48389H25.5485C25.1206 3.48389 24.7743 3.83057 24.7743 4.25812C24.7743 4.68566 25.1205 5.03235 25.5485 5.03235H34.8388C35.2667 5.03235 35.6131 4.68566 35.6131 4.25812C35.6131 3.83057 35.2667 3.48389 34.8388 3.48389Z" fill="#B69680"/>
<path d="M47.2257 21.29H37.9354C37.5075 21.29 37.1611 21.6367 37.1611 22.0643C37.1611 22.4918 37.5074 22.8385 37.9354 22.8385H47.2257C47.6536 22.8385 47.9999 22.4918 47.9999 22.0643C47.9999 21.6367 47.6536 21.29 47.2257 21.29Z" fill="#B69680"/>
</svg>
