<svg width="28" height="28" viewBox="0 0 28 28" fill="none" xmlns="http://www.w3.org/2000/svg">
<path d="M23.1924 4.80763C20.737 2.35227 17.4724 1 14 1C10.5276 1 7.263 2.35227 4.80763 4.80763C2.35227 7.263 1 10.5276 1 14C1 16.4937 1.70318 18.9013 3.03738 20.9891L1.05061 26.9493L7.01099 24.9626C9.09865 26.2968 11.5063 27 14 27C17.4724 27 20.737 25.6477 23.1924 23.1924C25.6477 20.737 27 17.4724 27 14C27 10.5276 25.6477 7.263 23.1924 4.80763ZM14 25.3918C11.6961 25.3918 9.4767 24.7072 7.58154 23.4121L7.25206 23.187L3.59346 24.4065L4.81299 20.748L4.58789 20.4185C3.29282 18.5233 2.60825 16.3038 2.60825 14C2.60825 7.71856 7.71856 2.60825 14 2.60825C20.2814 2.60825 25.3918 7.71856 25.3918 14C25.3918 20.2814 20.2814 25.3918 14 25.3918Z" fill="#292121"/>
<path fill-rule="evenodd" clip-rule="evenodd" d="M4.63085 4.63086C7.1331 2.12861 10.4613 0.75 14 0.75C17.5387 0.75 20.8669 2.12861 23.3692 4.63085C25.8714 7.1331 27.25 10.4613 27.25 14C27.25 17.5387 25.8714 20.8669 23.3692 23.3692C20.8669 25.8714 17.5387 27.25 14 27.25C11.4989 27.25 9.08201 26.5558 6.97753 25.2373L0.655319 27.3446L2.7627 21.0225C1.44425 18.9179 0.749997 16.501 0.749997 14C0.749997 10.4613 2.12861 7.1331 4.63085 4.63086ZM14 1.25C10.5939 1.25 7.39289 2.57593 4.98441 4.98441C2.57592 7.39289 1.25 10.5939 1.25 14C1.25 16.4462 1.93963 18.807 3.24804 20.8544L3.31227 20.955L1.44589 26.5541L7.04509 24.6877L7.14561 24.752C9.19291 26.0604 11.5538 26.75 14 26.75C17.4061 26.75 20.6071 25.4241 23.0156 23.0156C25.4241 20.6071 26.75 17.4061 26.75 14C26.75 10.5939 25.4241 7.39289 23.0156 4.98441C20.6071 2.57593 17.4061 1.25 14 1.25ZM14 2.85825C7.85663 2.85825 2.85824 7.85663 2.85824 14C2.85824 16.2537 3.52774 18.424 4.7943 20.2775L5.08939 20.7094L3.98875 24.0112L7.29069 22.9106L7.72259 23.2057C9.57603 24.4723 11.7463 25.1418 14 25.1418C20.1434 25.1418 25.1418 20.1434 25.1418 14C25.1418 7.85663 20.1434 2.85825 14 2.85825ZM2.35824 14C2.35824 7.58049 7.58049 2.35825 14 2.35825C20.4195 2.35825 25.6418 7.58049 25.6418 14C25.6418 20.4195 20.4195 25.6418 14 25.6418C11.646 25.6418 9.37736 24.9421 7.44048 23.6185L7.21343 23.4634L3.19817 24.8018L4.5366 20.7866L4.38148 20.5596C3.05791 18.6226 2.35824 16.354 2.35824 14Z" fill="#292121"/>
<path d="M11 10H8V13H11V10Z" fill="#D90916"/>
<path d="M20 10H17V13H20V10Z" fill="#D90916"/>
<path d="M20 17H8V19H20V17Z" fill="#D90916"/>
</svg>
