<svg width="63" height="63" viewBox="0 0 63 63" fill="none" xmlns="http://www.w3.org/2000/svg">
<path fill-rule="evenodd" clip-rule="evenodd" d="M6.02987 31.5C6.06208 17.4332 17.4916 6.02977 31.5585 6.02977C37.2195 6.02977 42.4449 7.87658 46.6664 11.0006C47.5826 10.1531 48.5597 9.23723 49.7061 8.11287L49.792 8.02854C50.1115 7.71497 50.5572 7.27748 51.0871 6.78368C45.7285 2.53596 38.9495 0 31.5723 0C14.1753 0 0.0399221 14.103 8.43842e-05 31.5C-0.0397533 48.897 14.031 63 31.428 63C48.8251 63 62.9604 48.897 63.0002 31.5C63.0109 26.8411 62.0096 22.4183 60.2034 18.4395C59.7521 19.0185 59.3432 19.5234 59.0171 19.9225L58.7352 20.2727L58.7351 20.2729C57.7791 21.4608 56.8083 22.6672 55.8287 23.8806C56.5764 26.2864 56.9765 28.8458 56.9705 31.5C56.9383 45.5668 45.5087 56.9702 31.4418 56.9702C17.375 56.9702 5.99766 45.5668 6.02987 31.5ZM54.0778 19.6478C54.5928 19.0084 55.1051 18.3718 55.6139 17.7395L55.6142 17.7392L55.8947 17.3907C56.4826 16.6714 57.2863 15.6709 58.0987 14.5565C56.9352 12.73 55.5882 11.0319 54.0835 9.4882C53.4788 10.0431 52.9536 10.5583 52.5677 10.9368L52.5208 10.9828C51.4703 12.0132 50.5578 12.8735 49.7155 13.6555C51.4454 15.4213 52.9193 17.4387 54.0778 19.6478Z" fill="#DADADA"/>
<path d="M60.7526 6.30652C58.762 4.82905 54.2062 9.32953 52.5208 10.9826C49.6953 13.7536 47.8686 15.2952 45.7196 17.3904C42.1191 20.9007 38.5837 24.1319 35.1846 27.5129C32.8849 29.8003 31.2859 31.4427 29.5648 33.4332C26.6513 30.6813 24.3314 28.0046 21.0941 25.5674C18.7471 23.8377 14.8624 22.5797 14.9433 26.7467C15.1052 32.1719 20.042 37.99 23.6839 41.6852C25.2216 43.2577 27.2449 44.9088 29.5919 44.9874C32.4245 45.1446 35.3381 41.8424 37.0376 40.0341C40.0322 36.8892 42.4937 34.0292 45.2011 30.5041C48.7621 26.2584 52.4146 21.7147 55.8946 17.3904C58.0798 14.7172 63.2469 8.15777 60.7526 6.30652Z" fill="#D90916"/>
</svg>
