<svg width="48" height="48" viewBox="0 0 48 48" fill="none" xmlns="http://www.w3.org/2000/svg">
<path d="M38.8493 9.1507C34.8828 5.18433 29.6093 3 24 3C18.3907 3 13.1172 5.18433 9.1507 9.1507C5.18433 13.1172 3 18.3907 3 24C3 29.6093 5.18433 34.8828 9.1507 38.8493C13.1172 42.8157 18.3907 45 24 45C29.6093 45 34.8828 42.8157 38.8493 38.8493C42.8157 34.8828 45 29.6093 45 24C45 18.3907 42.8157 13.1172 38.8493 9.1507ZM24 43.3267C13.3432 43.3267 4.67327 34.6568 4.67327 24C4.67327 13.3432 13.3432 4.67327 24 4.67327C34.6568 4.67327 43.3267 13.3432 43.3267 24C43.3267 34.6568 34.6568 43.3267 24 43.3267Z" fill="#B69680"/>
<path d="M24.0002 7.01611C14.6351 7.01611 7.01611 14.6351 7.01611 24.0002C7.01611 33.3653 14.6351 40.9843 24.0002 40.9843C33.3653 40.9843 40.9843 33.3653 40.9843 24.0002C40.9843 14.6351 33.3653 7.01611 24.0002 7.01611ZM24.0002 39.3109C15.5578 39.3109 8.68947 32.4426 8.68947 24.0002C8.68947 15.5578 15.5578 8.68947 24.0002 8.68947C32.4426 8.68947 39.3109 15.5578 39.3109 24.0002C39.3109 32.4426 32.4426 39.3109 24.0002 39.3109Z" fill="#B69680"/>
<path d="M24.6352 22.6617V16.5031C26.4976 16.6024 27.2427 17.4219 27.6896 17.4219C28.1365 17.4219 28.4097 16.826 28.4097 16.5031C28.4097 15.6837 26.423 15.0629 24.635 14.9883V14.2682C24.635 14.0198 24.337 13.7964 24.0638 13.7964C23.7409 13.7964 23.4926 14.0199 23.4926 14.2682V15.038C21.3322 15.1871 18.973 16.1804 18.973 19.3093C18.973 22.4879 21.3073 23.2329 23.4926 24.0028V31.2293C20.4134 31.1548 19.8671 29.193 19.271 29.193C18.8985 29.193 18.5261 29.7145 18.5261 30.1118C18.5261 31.0058 20.3639 32.7691 23.4928 32.7938V33.6877C23.4928 33.936 23.7412 34.1594 24.064 34.1594C24.3371 34.1594 24.6352 33.936 24.6352 33.6877V32.7191C27.1184 32.3962 28.8567 30.8567 28.8567 27.8518C28.8567 24.4497 26.6964 23.4068 24.6352 22.6617ZM23.5425 22.2894C21.9284 21.7182 20.5378 21.0974 20.5377 19.1604C20.5377 17.3227 21.9781 16.6523 23.5425 16.5281V22.2894ZM24.5608 31.1797V24.4003C26.0507 25.0211 27.2675 25.8405 27.2675 28.0011C27.2675 29.8387 26.299 30.9065 24.5608 31.1797Z" fill="#B69680"/>
<path d="M37.225 26.7064C36.779 26.5859 36.3197 26.8503 36.1994 27.2964C35.6938 29.1728 34.7396 30.9363 33.4402 32.3962C33.133 32.7413 33.1638 33.2701 33.5089 33.5773C33.6684 33.7192 33.8669 33.789 34.0648 33.789C34.2953 33.789 34.5248 33.6942 34.69 33.5085C36.1614 31.8554 37.2421 29.8579 37.815 27.7318C37.9354 27.2858 37.6711 26.8266 37.225 26.7064Z" fill="#B69680"/>
<path d="M37.4698 23.1636C37.0077 23.1636 36.6331 23.5381 36.6331 24.0002C36.6331 24.1311 36.6311 24.2632 36.6272 24.393C36.6131 24.8548 36.9759 25.2408 37.4379 25.2548C37.4466 25.2551 37.4553 25.2552 37.4639 25.2552C37.9141 25.2552 38.2858 24.8973 38.2997 24.4442C38.3042 24.2974 38.3065 24.1481 38.3065 24.0002C38.3064 23.5381 37.9319 23.1636 37.4698 23.1636Z" fill="#B69680"/>
</svg>
