<svg width="28" height="28" viewBox="0 0 28 28" fill="none" xmlns="http://www.w3.org/2000/svg">
<path d="M25.6667 0H2.33333C1.71472 0.000733298 1.12165 0.246801 0.684227 0.684227C0.246801 1.12165 0.000733298 1.71472 0 2.33333L0 21C0.000733298 21.6186 0.246801 22.2117 0.684227 22.6491C1.12165 23.0865 1.71472 23.3326 2.33333 23.3333H10.5V25.6667H8.02083V28H19.8333V25.6667H17.5V23.3333H25.6667C26.2853 23.3326 26.8783 23.0865 27.3158 22.6491C27.7532 22.2117 27.9993 21.6186 28 21V2.33333C27.9993 1.71472 27.7532 1.12165 27.3158 0.684227C26.8783 0.246801 26.2853 0.000733298 25.6667 0V0ZM25.6667 2.33333L25.6678 17.5H2.33333V2.33333H25.6667ZM15.1667 25.6667H12.8333V23.3333H15.1667V25.6667ZM25.6667 21H2.33333V19.8333H25.6681V21H25.6667Z" fill="#292121"/>
<path d="M17.1666 7.66665V6.5C17.1666 5.21665 16.1166 4.16665 14.8333 4.16665V3H12.5V4.16665C11.2166 4.16665 10.1666 5.21665 10.1666 6.5V8.83335C10.1666 10.1167 11.2166 11.1667 12.5 11.1667H14.8333V13.5001H12.5V12.3334H10.1666V13.5001C10.1666 14.7834 11.2166 15.8334 12.5 15.8334V17.0001H14.8333V15.8334C16.1167 15.8334 17.1667 14.7834 17.1667 13.5001V11.1666C17.1667 9.8833 16.1167 8.8333 14.8333 8.8333H12.5V6.49995H14.8333V7.66659H17.1666V7.66665Z" fill="#D90916"/>
</svg>
