<svg width="239" height="239" viewBox="0 0 239 239" fill="none" xmlns="http://www.w3.org/2000/svg">
<path d="M140 119.5C140 130.822 130.822 140 119.5 140C108.178 140 99 130.822 99 119.5C99 108.178 108.178 99 119.5 99C130.822 99 140 108.178 140 119.5Z" fill="#D90916"/>
<path fill-rule="evenodd" clip-rule="evenodd" d="M119.5 41C76.1456 41 41 76.1456 41 119.5C41 162.854 76.1456 198 119.5 198C162.854 198 198 162.854 198 119.5C198 76.1456 162.854 41 119.5 41ZM239 119.5C239 185.498 185.498 239 119.5 239C53.502 239 0 185.498 0 119.5C0 53.502 53.502 0 119.5 0C185.498 0 239 53.502 239 119.5Z" fill="#EDEDEE"/>
</svg>
