<svg width="28" height="28" viewBox="0 0 28 28" fill="none" xmlns="http://www.w3.org/2000/svg">
<g clip-path="url(#clip0)">
<path d="M5.77902 6.0343H11.6484V7.67495H5.77902V6.0343Z" fill="#D90916"/>
<path d="M5.77902 9.26709H11.6484V10.9077H5.77902V9.26709Z" fill="#D90916"/>
<path d="M5.77902 12.3757H11.6484V14.0164H5.77902V12.3757Z" fill="#D90916"/>
<path d="M16.2196 6.0343H22.089V7.67495H16.2196V6.0343Z" fill="#D90916"/>
<path d="M16.2196 9.26709H22.089V10.9077H16.2196V9.26709Z" fill="#D90916"/>
<path d="M16.2196 12.3757H22.089V14.0164H16.2196V12.3757Z" fill="#D90916"/>
<path d="M28 4.79382C28 4.79382 25.709 4.39207 25.3975 4.34233V3.33306L24.8306 3.14891C21.4857 2.06215 17.3462 2.03063 13.9579 3.05653C12.3394 2.56624 10.5273 2.30798 8.69696 2.30798C8.68924 2.30798 8.68141 2.30798 8.67375 2.30798C6.73945 2.31028 4.82583 2.6011 3.13971 3.14891L2.57291 3.33306V4.91488C2.26551 4.96369 0 5.35586 0 5.35586V22.5291L0.948628 22.3788C6.45197 21.5072 12.0595 21.1889 17.6274 21.4309C18.0881 23.8543 20.222 25.6922 22.7775 25.6922C25.2843 25.6922 27.3854 23.9235 27.8994 21.5685H28V4.79382ZM25.0643 19.6295C24.9853 18.79 24.7891 17.9943 24.4895 17.2816C25.3818 17.7657 26.0469 18.6162 26.2839 19.6295H25.0643ZM19.271 19.6295C19.508 18.6161 20.1732 17.7657 21.0656 17.2816C20.7659 17.9943 20.5698 18.79 20.4908 19.6295H19.271ZM14.7782 18.9494C15.7706 18.6771 16.841 18.499 17.9435 18.421C17.7627 18.8503 17.6373 19.3085 17.5768 19.7866C16.6447 19.7474 15.7117 19.7234 14.7782 19.715V18.9494ZM22.141 19.6295C22.2336 18.8443 22.4536 18.1111 22.7775 17.4994C23.1014 18.1111 23.3214 18.8443 23.4141 19.6295H22.141ZM23.4197 21.2701C23.3307 22.0747 23.1086 22.8267 22.7776 23.4516C22.4466 22.8267 22.2244 22.0747 22.1355 21.2701H23.4197ZM25.9509 6.10862C26.0831 6.13391 26.2171 6.15952 26.3594 6.18579V16.6257C26.0678 16.3524 25.7453 16.112 25.3975 15.9104V6.00579C25.5836 6.03841 25.7621 6.0725 25.9509 6.10862ZM23.7568 4.53841V15.2995C23.4394 15.2393 23.1121 15.2074 22.7775 15.2074C21.3369 15.2074 20.0303 15.7915 19.0818 16.7352C17.5938 16.7462 16.13 16.9241 14.7782 17.2549V4.52703C17.6012 3.74882 20.9378 3.75292 23.7568 4.53841ZM4.21355 4.53847C7.01565 3.75845 10.3316 3.75429 13.1376 4.52714V17.2547C11.7241 16.9082 10.1932 16.7289 8.65006 16.7347C7.12379 16.7399 5.61072 16.9247 4.21355 17.2732V4.53847ZM1.64064 6.74859C1.76876 6.72533 2.38552 6.61019 2.57291 6.57785V19.4915L3.64752 19.1411C6.55792 18.1922 10.1394 18.1268 13.1376 18.9494V19.716C9.29068 19.7555 5.4432 20.0555 1.64064 20.6136V6.74859ZM19.271 21.2701H20.4861C20.5595 22.1023 20.7478 22.8923 21.0378 23.6023C20.1595 23.1157 19.5055 22.2729 19.271 21.2701ZM24.5173 23.6022C24.8073 22.8923 24.9956 22.1023 25.069 21.2701H26.2839C26.0494 22.2728 25.3955 23.1156 24.5173 23.6022Z" fill="black"/>
</g>
<defs>
<clipPath id="clip0">
<rect width="28" height="28" fill="white"/>
</clipPath>
</defs>
</svg>
