<svg width="28" height="28" viewBox="0 0 28 28" fill="none" xmlns="http://www.w3.org/2000/svg">
<path d="M12.159 3.5907C8.20545 3.5907 4.99969 6.80713 4.99969 10.7606C4.99969 14.7141 8.20551 17.9305 12.159 17.9305C16.1124 17.9305 19.3289 14.7141 19.3289 10.7606C19.3289 6.80713 16.1124 3.5907 12.159 3.5907ZM12.159 16.3372C9.08402 16.3372 6.58237 13.8355 6.58237 10.7606C6.58237 7.68565 9.08402 5.18399 12.159 5.18399C15.2339 5.18399 17.7356 7.68565 17.7356 10.7606C17.7355 13.8355 15.2339 16.3372 12.159 16.3372Z" fill="#D90916"/>
<path d="M22.5138 10.569C22.4603 7.68685 21.2025 4.94614 19.0442 3.02414C17.9661 2.06409 16.7267 1.35234 15.3603 0.908597C13.9333 0.445252 12.4398 0.29978 10.9217 0.47611C8.74996 0.728443 6.66029 1.71403 5.03763 3.25135C3.41353 4.78999 2.31832 6.824 1.95365 8.97847C1.52207 11.5281 2.04123 14.1155 3.40737 16.258C4.44203 17.8807 4.99954 19.935 4.99954 22.1989L4.9996 27.5966H17.7355V22.7105H22.5154V17.9305H26.1944L22.5138 10.569ZM20.9328 16.3372V21.1172H16.1529V26.0033H6.58237L6.58232 22.1989C6.58232 19.6309 5.94897 17.2804 4.75088 15.4014C3.57817 13.5623 3.15419 11.4332 3.52464 9.24429C4.15539 5.51783 7.34357 2.49584 11.1056 2.05878C13.6491 1.76322 16.092 2.52866 17.9845 4.21399C19.8514 5.87654 20.9222 8.26269 20.9222 10.7606V10.9487L23.6164 16.3372H20.9328Z" fill="black"/>
<path fill-rule="evenodd" clip-rule="evenodd" d="M7.57384 1.14625C10.3376 -0.205325 13.9757 0.19611 15.4375 0.670768C16.837 1.12525 18.1067 1.85445 19.2105 2.83739C21.4067 4.79312 22.6923 7.57646 22.7625 10.5074L26.5989 18.1805H22.7654V22.9604H17.9855V27.8466H4.7496L4.74954 22.1989C4.74954 19.975 4.20183 17.9689 3.19657 16.3924C1.79662 14.1968 1.26539 11.5465 1.70716 8.9367C2.08109 6.72745 2.99613 4.8797 4.86568 3.06981M15.2831 1.14632C13.8909 0.694294 12.4337 0.552126 10.9505 0.724391C8.83375 0.970339 6.79395 1.93173 5.20956 3.43278C3.62381 4.9351 2.55553 6.92046 2.20014 9.02015C1.77875 11.5096 2.28585 14.0341 3.61816 16.1236C4.68224 17.7923 5.24954 19.8949 5.24954 22.1989L5.24959 27.3466H17.4855V22.4604H22.2654V17.6805H25.7899L22.2648 10.6302L22.2638 10.5736C22.2116 7.76111 20.9842 5.0864 18.8779 3.21079C17.8256 2.27363 16.6164 1.57934 15.2831 1.14632ZM17.8182 4.40064C15.9797 2.76331 13.6079 2.01963 11.1344 2.30706C7.48252 2.73132 4.38328 5.66941 3.77113 9.28597C3.41081 11.415 3.82294 13.4811 4.96167 15.267C6.18908 17.1919 6.83232 19.5907 6.83232 22.1989L6.83237 25.7533H15.9029V20.8671H20.6828V16.0872H23.2119L20.6722 11.0077V10.7606C20.6722 8.33403 19.6319 6.0158 17.8182 4.40064ZM11.0767 1.8104C13.6902 1.5067 16.2044 2.29391 18.1508 4.02725C20.0709 5.73719 21.1722 8.19125 21.1722 10.7606V10.8896L24.0209 16.5872H21.1828V21.3671H16.4029V26.2533H6.33237L6.33232 22.1989C6.33232 19.6711 5.70885 17.3688 4.54008 15.5358C3.33341 13.6433 2.89755 11.4513 3.27814 9.20253C3.9275 5.36616 7.20462 2.26025 11.0767 1.8104Z" fill="black"/>
<path d="M5.85603 3.54067L4.85217 3.07434C4.85217 3.07434 5.55576 2.38106 6.07661 2.0117C6.62394 1.62356 7.59231 1.13635 7.59231 1.13635C7.6076 1.48788 7.75437 2.14121 7.71768 2.19257C7.681 2.24393 6.46129 3.1127 5.85603 3.54067Z" fill="black"/>
<path d="M14.7823 8.604L11.3623 12.024L9.53565 10.1973L8.409 11.324L11.3623 14.2772L15.9089 9.73061L14.7823 8.604Z" fill="#D90916"/>
</svg>
