<svg width="28" height="28" viewBox="0 0 28 28" fill="none" xmlns="http://www.w3.org/2000/svg">
<path d="M24.5 0H3.5C2.57207 0.00108069 1.68246 0.370177 1.02632 1.02632C0.370177 1.68246 0.00108069 2.57207 0 3.5L0 26.8333C0.0039365 27.0502 0.0677209 27.2618 0.184314 27.4447C0.300906 27.6277 0.465774 27.7748 0.66072 27.87C0.855666 27.9651 1.07311 28.0046 1.28906 27.9839C1.505 27.9633 1.71105 27.8834 1.88446 27.7531L7.54717 23.3333H24.5C25.4279 23.3323 26.3175 22.9632 26.9737 22.307C27.6298 21.6509 27.9989 20.7613 28 19.8333V3.5C27.9989 2.57207 27.6298 1.68246 26.9737 1.02632C26.3175 0.370177 25.4279 0.00108069 24.5 0V0ZM25.6667 19.8333C25.6663 20.1426 25.5433 20.4392 25.3246 20.6579C25.1059 20.8766 24.8093 20.9997 24.5 21H7.14583C6.88574 21 6.63309 21.0869 6.42804 21.2469L2.33333 24.4428V3.5C2.33368 3.19069 2.45671 2.89414 2.67543 2.67543C2.89414 2.45671 3.19069 2.33368 3.5 2.33333H24.5C24.8093 2.33368 25.1059 2.45671 25.3246 2.67543C25.5433 2.89414 25.6663 3.19069 25.6667 3.5V19.8333Z" fill="#292121"/>
<path d="M19.649 6.67027C18.9083 6.06433 16.9472 4.95629 14 6.87808C11.0529 4.95629 9.09156 6.06448 8.35102 6.67027C6.7906 7.94646 6.24008 10.4218 7.12325 12.1883C8.742 15.4258 13.3649 17.3343 13.5608 17.414C13.8424 17.5284 14.1576 17.5284 14.4393 17.414C14.6353 17.3343 19.258 15.4261 20.8768 12.1883C21.76 10.4218 21.2093 7.94646 19.649 6.67027ZM18.7899 11.1447C17.8875 12.9499 15.3357 14.4321 14 15.0583C12.6635 14.4312 10.1124 12.9493 9.21013 11.1447C8.85531 10.435 9.04796 9.11458 9.82846 8.47598C10.1074 8.24796 10.4583 8.12654 10.8185 8.13342C11.7101 8.13342 12.6823 8.76312 13.2818 9.2314C13.4869 9.39164 13.7397 9.47868 14 9.47868C14.2603 9.47868 14.5131 9.39164 14.7183 9.2314C15.5543 8.57835 17.1147 7.61177 18.1716 8.47598C18.9521 9.11444 19.1447 10.435 18.7899 11.1447Z" fill="#D90916"/>
</svg>
