<svg width="28" height="28" viewBox="0 0 28 28" fill="none" xmlns="http://www.w3.org/2000/svg">
<g clip-path="url(#clip0)">
<path d="M24.6202 7.56929C24.4444 7.39261 24.2066 7.29586 23.9606 7.30007H23.9597L18.7688 7.29493C18.5223 7.29399 18.2859 7.39355 18.111 7.57163C17.9365 7.74971 17.8376 7.99182 17.8372 8.24468L17.8208 16.7602C17.8167 18.9953 16.0564 20.8083 13.878 20.8209H13.873C11.7015 20.8088 9.94898 18.9962 9.95445 16.7681L9.96401 11.9932C9.9672 11.9595 9.96857 11.9259 9.96857 11.8922C9.96857 11.8637 9.96675 11.8343 9.96447 11.8058L9.97085 8.2601C9.97176 8.00584 9.87381 7.76186 9.69889 7.58144C9.52396 7.40149 9.28616 7.30007 9.03789 7.30007H9.03561L3.84515 7.31596C3.33221 7.31783 2.91721 7.74503 2.91767 8.27132L2.91311 11.9035V11.9058L2.90127 16.77C2.89535 19.7497 4.04605 22.6087 6.09873 24.7157C8.15141 26.8228 10.9375 28.0048 13.8411 28.0001H13.8753C19.9308 28.0001 24.868 22.9322 24.8817 16.7186L24.8876 12.2919C24.8949 12.2269 24.8949 12.161 24.8876 12.096L24.8931 8.24094C24.8935 7.98855 24.7956 7.74643 24.6202 7.56929ZM23.0263 9.19256L23.0235 11.2421L19.6972 11.2486L19.7013 9.19677L23.0263 9.19256ZM8.10312 9.2178L8.09993 10.9369L4.77537 10.9434L4.77902 9.22761L8.10312 9.2178ZM13.8703 26.0857H13.8421C11.4327 26.0908 9.12035 25.1107 7.41661 23.3622C5.71288 21.6136 4.75852 19.2407 4.76398 16.7681L4.77173 12.8555L8.09628 12.8504L8.08854 16.755C8.07624 20.0455 10.666 22.7232 13.873 22.7354H13.8803C17.0869 22.719 19.6798 20.0507 19.6867 16.7602L19.6935 13.1729L23.0208 13.1608L23.0158 16.7172C22.9971 21.8889 18.9113 26.0745 13.8703 26.0857Z" fill="#292121"/>
<path d="M6.09323 5.26569C6.61118 5.25541 7.02618 4.82166 7.02618 4.28977L7.03575 0.957228C7.03666 0.703899 6.93917 0.460385 6.7647 0.280905C6.58977 0.101424 6.35289 0.000934112 6.10598 0.000934112H6.10279C5.85726 -0.00233769 5.62083 0.0953482 5.4459 0.271557C5.27052 0.448233 5.17121 0.688942 5.16984 0.940869L5.15982 4.29117C5.15709 4.8226 5.57209 5.25774 6.09004 5.26569H6.09323Z" fill="#D90916"/>
<path d="M10.1863 7.04115L12.4836 4.68407C12.848 4.31015 12.848 3.7044 12.4836 3.33049C12.1191 2.95657 11.5283 2.95657 11.1643 3.33049L8.86655 5.68757C8.50257 6.06149 8.50257 6.66723 8.86655 7.04115C9.23099 7.41507 9.82183 7.41507 10.1863 7.04115Z" fill="#D90916"/>
<path d="M3.8825 6.43158C4.24693 6.05813 4.24693 5.45191 3.8825 5.07799L1.58519 2.72091C1.21985 2.354 0.634929 2.35727 0.273228 2.72839C-0.0880182 3.09903 -0.0916625 3.69917 0.265939 4.07449L2.56324 6.43158C2.92768 6.80549 3.51806 6.80549 3.8825 6.43158Z" fill="#D90916"/>
<path d="M21.5612 5.14575C21.8058 5.15136 22.0422 5.05601 22.2176 4.8812C22.393 4.7064 22.4928 4.46662 22.4941 4.21563L22.4996 0.91721C22.4982 0.66762 22.3985 0.429248 22.2226 0.256311C22.0472 0.0838419 21.8108 -0.00870259 21.568 0.000645343H21.5662C21.322 -0.00589827 21.0856 0.088516 20.9102 0.262855C20.7348 0.436726 20.6351 0.676034 20.6332 0.926558L20.6282 4.22731C20.6291 4.4769 20.7289 4.71574 20.9043 4.88868C21.0801 5.06208 21.3165 5.15463 21.5598 5.14575H21.5612Z" fill="#D90916"/>
<path d="M27.7343 4.36113C28.0914 3.98628 28.0882 3.38614 27.727 3.01502C27.3653 2.64438 26.7803 2.64111 26.415 3.00755L24.1127 5.36978C23.7482 5.7437 23.7482 6.34991 24.1127 6.72383C24.4771 7.09775 25.068 7.09775 25.4324 6.72383L27.7343 4.36113Z" fill="#D90916"/>
<path d="M18.7592 6.69182C19.1364 6.69182 19.4766 6.45859 19.6211 6.10103C19.7655 5.74348 19.6857 5.3317 19.4188 5.05781L17.1215 2.70073C16.7561 2.33055 16.1685 2.33242 15.8059 2.70493C15.4433 3.07698 15.4414 3.67992 15.8018 4.05431L18.0995 6.41139C18.274 6.59133 18.5113 6.69229 18.7592 6.69182Z" fill="#D90916"/>
</g>
<defs>
<clipPath id="clip0">
<rect width="28" height="28" fill="white"/>
</clipPath>
</defs>
</svg>
