<svg width="28" height="28" viewBox="0 0 28 28" fill="none" xmlns="http://www.w3.org/2000/svg">
<g clip-path="url(#clip0)">
<path d="M16.7869 0C12.7882 0 9.53508 3.25314 9.53508 7.25184C9.53508 11.2505 12.7883 14.5037 16.7869 14.5037C20.7856 14.5037 24.0388 11.2505 24.0388 7.25184C24.0388 3.25314 20.7856 0 16.7869 0ZM16.7869 12.8404C13.7054 12.8404 11.1984 10.3334 11.1984 7.25184C11.1984 4.1703 13.7054 1.66332 16.7869 1.66332C19.8684 1.66332 22.3754 4.1703 22.3754 7.25184C22.3754 10.3334 19.8684 12.8404 16.7869 12.8404Z" fill="#D90916"/>
<path d="M19.2869 5.58502V4.7517C19.2869 3.83502 18.5369 3.08503 17.6202 3.08503V2.25171H15.9536V3.08503C15.0369 3.08503 14.2869 3.83502 14.2869 4.7517V6.41837C14.2869 7.33505 15.0369 8.08505 15.9536 8.08505H17.6202V9.75172H15.9536V8.9184H14.2869V9.75172C14.2869 10.6684 15.0369 11.4184 15.9536 11.4184V12.2517H17.6202V11.4184C18.5369 11.4184 19.2869 10.6684 19.2869 9.75172V8.08501C19.2869 7.16833 18.5369 6.41833 17.6202 6.41833H15.9536V4.75166H17.6202V5.58498H19.2869V5.58502Z" fill="#D90916"/>
<path d="M27.059 18.1918L20.434 19.7984V17.4136L12.7765 15.4961L4.90594 16.7169H0.0152893V28H5.7805V25.67L9.82349 25.2165L17.6571 27.4156L27.9847 21.7235L27.059 18.1918ZM4.11713 25.8565V26.3366H1.67866V18.3803H4.11713V25.8565ZM17.4508 25.63L9.96059 23.5273L5.78045 23.9962V18.2646L12.6989 17.1914L18.7706 18.7118V19.7969L14.1125 18.6608L13.7183 20.2768L19.6017 21.7117L25.8639 20.1931L26.0471 20.8921L17.4508 25.63Z" fill="#292121"/>
</g>
<defs>
<clipPath id="clip0">
<rect width="28" height="28" fill="white"/>
</clipPath>
</defs>
</svg>
