<svg width="48" height="48" viewBox="0 0 48 48" fill="none" xmlns="http://www.w3.org/2000/svg">
<path d="M45.8365 39.6161C45.697 33.644 43.628 27.8012 39.8305 22.6785C36.9213 18.7542 33.0987 15.5012 29.0605 13.4577C29.1425 13.3358 29.1904 13.1889 29.1904 13.0309C29.1904 12.6079 28.8476 12.2649 28.4245 12.2649H27.3839L31.5413 3.57398C31.6548 3.33664 31.6386 3.05762 31.4983 2.83509C31.3581 2.61255 31.1134 2.47754 30.8503 2.47754H17.1497C16.8866 2.47754 16.6419 2.61255 16.5017 2.83509C16.3615 3.05762 16.3452 3.33664 16.4588 3.57398L20.6161 12.2649H19.5755C19.1525 12.2649 18.8096 12.6079 18.8096 13.0309C18.8096 13.1889 18.8575 13.3358 18.9395 13.4577C14.9013 15.5012 11.0787 18.7542 8.1696 22.6785C4.37209 27.8012 2.30308 33.644 2.16357 39.6161C0.905668 39.9824 0 41.1381 0 42.5071C0 44.1695 1.35258 45.5221 3.01501 45.5221H44.9851C46.6475 45.5221 48 44.1695 48 42.5071C48 41.1381 47.0943 39.9824 45.8365 39.6161ZM44.9851 43.9902H3.01501C2.19728 43.9902 1.53191 43.3248 1.53191 42.5071C1.53191 41.7154 2.14866 41.0687 2.93872 41.0288H4.96391C5.38693 41.0288 5.72987 40.6858 5.72987 40.2628C5.72987 39.8398 5.38693 39.4969 4.96391 39.4969H3.69988C4.06519 27.0579 13.2622 17.0415 21.9712 13.7969H26.0288C34.7379 17.0414 43.9349 27.0579 44.3001 39.4969H43.0361C42.613 39.4969 42.2701 39.8398 42.2701 40.2628C42.2701 40.6858 42.613 41.0288 43.0361 41.0288H45.0613C45.8512 41.0687 46.468 41.7154 46.468 42.5071C46.4681 43.3248 45.8027 43.9902 44.9851 43.9902ZM21.8129 6.05201C22.2359 6.05201 22.5789 5.70906 22.5789 5.28605V4.00945H29.6349L25.6858 12.2649H22.3143L18.3652 4.00945H21.047V5.28605C21.047 5.70906 21.3899 6.05201 21.8129 6.05201Z" fill="#B69680"/>
<path d="M39.9724 39.4971H33.8447C33.4216 39.4971 33.0788 39.84 33.0788 40.263C33.0788 40.686 33.4216 41.029 33.8447 41.029H39.9724C40.3955 41.029 40.7383 40.686 40.7383 40.263C40.7383 39.84 40.3954 39.4971 39.9724 39.4971Z" fill="#B69680"/>
<path d="M28.0552 23.5418C28.0552 23.9648 28.398 24.3077 28.8211 24.3077C29.2442 24.3077 29.5871 23.9648 29.5871 23.5418C29.5871 21.238 27.6797 19.6318 24.7657 19.3934V18.1703C24.7657 17.7472 24.4228 17.4043 23.9998 17.4043C23.5768 17.4043 23.2338 17.7472 23.2338 18.1703V19.3934C20.3198 19.6318 18.4126 21.2379 18.4126 23.5418C18.4126 26.5321 20.941 27.2037 23.2338 27.6009V32.9736C21.5808 32.8032 19.9445 32.0566 19.9445 30.3648C19.9445 29.9418 19.6016 29.5989 19.1785 29.5989C18.7555 29.5989 18.4126 29.9418 18.4126 30.3648C18.4126 32.6686 20.3198 34.2748 23.2338 34.5131V35.7363C23.2338 36.1593 23.5768 36.5023 23.9998 36.5023C24.4228 36.5023 24.7657 36.1593 24.7657 35.7363V34.5131C27.6797 34.2748 29.5871 32.6687 29.5871 30.3648C29.5871 27.3734 27.059 26.7012 24.7657 26.3037V20.933C26.4188 21.1035 28.0552 21.85 28.0552 23.5418ZM19.9445 23.5418C19.9445 21.85 21.5809 21.1035 23.2338 20.933V26.0415C21.0032 25.6232 19.9445 25.1215 19.9445 23.5418ZM28.0552 30.3648C28.0552 32.0566 26.4188 32.8031 24.7657 32.9736V27.8631C26.9964 28.2816 28.0552 28.784 28.0552 30.3648Z" fill="#B69680"/>
</svg>
