<svg width="28" height="28" viewBox="0 0 28 28" fill="none" xmlns="http://www.w3.org/2000/svg">
<path d="M7.21307 5.22461H16V7.22461H7.21307V5.22461Z" fill="#D90916"/>
<path d="M5.26044 8.22473H16V10.2247H5.26044V8.22473Z" fill="#D90916"/>
<path d="M5.26044 11.2247H16V13.2247H5.26044V11.2247Z" fill="#D90916"/>
<path d="M27 9.26683C27 8.61382 26.733 7.99988 26.2482 7.53809C25.7634 7.07629 25.1187 6.82199 24.4332 6.82199C23.7476 6.82199 23.1031 7.07629 22.6183 7.53809L20.9908 9.0885V1H1V27H20.9908V16.0035L26.2482 10.9956C26.733 10.5338 27 9.91985 27 9.26683ZM16.4502 18.174L15.0823 16.8709L20.4117 11.7944L21.7799 13.0974L16.4502 18.174ZM13.9515 17.9482L15.3195 19.2513L14.1772 20.3395L12.4436 20.6875L12.809 19.0363L13.9515 17.9482ZM19.3915 25.4766H2.59933V2.52344H19.3915V10.6119L15.0796 14.7191H5.50229V16.2425H13.4802L11.8882 17.759H5.50229V19.2824H11.1202L10.7845 20.7989H5.50229V22.3224H11.9729V22.3212C12.0419 22.3188 12.111 22.3113 12.1799 22.2974L14.9721 21.7366L19.3915 17.5269V25.4766ZM25.1172 9.91846L22.9107 12.0203L21.5427 10.7171L23.7493 8.6154C23.9319 8.44124 24.1749 8.34543 24.4334 8.34543C24.6916 8.34543 24.9346 8.44124 25.1172 8.6154C25.3001 8.78937 25.4007 9.02066 25.4007 9.26683C25.4007 9.513 25.2999 9.74429 25.1172 9.91846Z" fill="#292121"/>
<path fill-rule="evenodd" clip-rule="evenodd" d="M0.75 0.75H21.2408V8.50505L22.4458 7.35708C22.9784 6.84984 23.6851 6.57199 24.4332 6.57199C25.1812 6.57199 25.8881 6.84981 26.4207 7.35707C26.9536 7.8647 27.25 8.54348 27.25 9.26683C27.25 9.99018 26.9536 10.669 26.4207 11.1766L21.2408 16.1106V27.25H0.75V0.75ZM1.25 1.25V26.75H20.7408V15.8963L26.0758 10.8146C26.5125 10.3986 26.75 9.84951 26.75 9.26683C26.75 8.68415 26.5125 8.13506 26.0758 7.71911C25.6387 7.30277 25.0562 7.07199 24.4332 7.07199C23.8101 7.07199 23.2278 7.30276 22.7907 7.71909C22.7907 7.7191 22.7907 7.71909 22.7907 7.71909L20.7408 9.67196V1.25H1.25ZM2.34933 2.27344H19.6415V10.7191L15.1796 14.9691H5.75229V15.9925H14.1051L11.9882 18.009H5.75229V19.0324H11.4316L10.9852 21.0489H5.75229V22.0724H11.9341L11.9643 22.0713C12.0208 22.0694 12.0762 22.0632 12.1306 22.0523L14.852 21.5057L19.6415 16.9435V25.7266H2.34933V2.27344ZM2.84933 2.77344V25.2266H19.1415V18.1103L15.0922 21.9675L12.2293 22.5425C12.2272 22.5429 12.225 22.5433 12.2229 22.5437V22.5724H5.25229V20.5489H10.5838L10.8088 19.5324H5.25229V17.509H11.7882L12.8553 16.4925H5.25229V14.4691H14.9795L19.1415 10.5048V2.77344H2.84933ZM24.4334 8.59543C24.2374 8.59543 24.0566 8.66774 23.9218 8.79632L21.9052 10.7171L22.9107 11.675L24.9447 9.73754C24.9447 9.7375 24.9447 9.73757 24.9447 9.73754C25.0794 9.60908 25.1507 9.44248 25.1507 9.26683C25.1507 9.091 25.0795 8.9246 24.9449 8.79652C24.8101 8.66792 24.6291 8.59543 24.4334 8.59543ZM23.5767 8.43448C23.8072 8.21473 24.1125 8.09543 24.4334 8.09543C24.754 8.09543 25.0594 8.21475 25.2898 8.43448C25.5207 8.65431 25.6507 8.95042 25.6507 9.26683C25.6507 9.58348 25.5203 9.87952 25.2898 10.0994L22.9106 12.3656L21.1802 10.717L23.5767 8.43448ZM20.4117 11.4491L22.1424 13.0974L16.4502 18.5192L14.7198 16.8709L20.4117 11.4491ZM20.4117 12.1396L15.4447 16.8709L16.4502 17.8287L21.4174 13.0975L20.4117 12.1396ZM13.9515 17.603L15.6819 19.2513L14.2973 20.5704L12.1165 21.0081L12.5814 18.9078L13.9515 17.603ZM13.0367 19.1647L12.7706 20.3668L14.0571 20.1086L14.957 19.2513L13.9515 18.2935L13.0367 19.1647Z" fill="#292121"/>
</svg>
