<svg width="169" height="169" viewBox="0 0 169 169" fill="none" xmlns="http://www.w3.org/2000/svg">
<path opacity="0.05" fill-rule="evenodd" clip-rule="evenodd" d="M84.5 149C120.122 149 149 120.122 149 84.5C149 48.8776 120.122 20 84.5 20C48.8776 20 20 48.8776 20 84.5C20 120.122 48.8776 149 84.5 149ZM84.5 169C131.168 169 169 131.168 169 84.5C169 37.8319 131.168 0 84.5 0C37.8319 0 0 37.8319 0 84.5C0 131.168 37.8319 169 84.5 169Z" fill="white"/>
<g clip-path="url(#clip0)">
<path d="M82.0142 85.7358C91.3149 85.7358 98.8823 78.1689 98.8823 68.8682C98.8823 59.5669 91.3149 52 82.0142 52C72.7129 52 65.146 59.5669 65.146 68.8682C65.146 71.4692 65.7383 73.9346 66.7944 76.1367L52 90.9311L59.9512 98.8823L74.7456 84.0879C76.9478 85.144 79.4131 85.7358 82.0142 85.7358ZM59.9512 93.5811L57.3013 90.9311L68.8413 79.3911C69.624 80.3691 70.5132 81.2583 71.4912 82.041L59.9512 93.5811ZM68.8945 68.8682C68.8945 61.6338 74.7798 55.7485 82.0142 55.7485C89.248 55.7485 95.1338 61.6338 95.1338 68.8682C95.1338 76.102 89.248 81.9873 82.0142 81.9873C74.7798 81.9873 68.8945 76.102 68.8945 68.8682Z" fill="white"/>
<path d="M112.126 74.4907H100.881V112.225H97.0078V93.2329H85.7627V112.225H82.0141V100.729H70.769V112.225H67.0205V115.973H116V112.225H112.126V74.4907ZM78.2656 112.225H74.5171V104.478H78.2656V112.225ZM93.2593 112.225H89.5112V96.9814H93.2593V112.225ZM108.378 112.225H104.63V78.2393H108.378V112.225Z" fill="#D90916"/>
</g>
<defs>
<clipPath id="clip0">
<rect x="52" y="52" width="64" height="64" fill="white"/>
</clipPath>
</defs>
</svg>
