<svg width="28" height="28" viewBox="0 0 28 28" fill="none" xmlns="http://www.w3.org/2000/svg">
<g clip-path="url(#clip0)">
<path d="M17.3612 0C11.4838 0 6.70227 4.78174 6.70227 10.6589C6.70227 13.3032 7.67041 15.7254 9.27045 17.5904L8.16132 18.6993L7.00027 17.5382L0.0547485 24.5214L3.53339 28L10.4789 21.0169L9.32086 19.8588L10.43 18.7499C12.2949 20.3499 14.717 21.3181 17.3612 21.3181C23.2386 21.3181 28.0204 16.5363 28.0204 10.6589C28.0204 4.78174 23.2386 0 17.3612 0V0ZM3.53018 25.6777L2.37064 24.5182L7.00327 19.8605L8.16281 21.0201L3.53018 25.6777ZM17.3612 19.6781C12.3881 19.6781 8.34204 15.6323 8.34204 10.6589C8.34204 5.68579 12.3881 1.63977 17.3612 1.63977C22.3344 1.63977 26.3804 5.68579 26.3804 10.6589C26.3804 15.6323 22.3346 19.6781 17.3612 19.6781Z" fill="#292121"/>
<path d="M20.6409 6.55933C20.6409 4.75101 19.1697 3.27979 17.3612 3.27979C15.5529 3.27979 14.0814 4.75101 14.0814 6.55933C14.0814 8.36786 15.5529 9.83908 17.3612 9.83908C19.1697 9.83908 20.6409 8.36786 20.6409 6.55933ZM17.3612 8.19931C16.4569 8.19931 15.7214 7.46359 15.7214 6.55933C15.7214 5.65527 16.4569 4.91956 17.3612 4.91956C18.2654 4.91956 19.0009 5.65527 19.0009 6.55933C19.0009 7.46359 18.2654 8.19931 17.3612 8.19931Z" fill="#D90916"/>
<path d="M17.3612 9.83911C14.6486 9.83911 12.4417 12.0461 12.4417 14.7586V16.3986H22.2807V14.7586C22.2807 12.0461 20.0738 9.83911 17.3612 9.83911ZM14.0814 14.7586C14.0814 12.9503 15.5529 11.4791 17.3612 11.4791C19.1697 11.4791 20.6409 12.9503 20.6409 14.7586H14.0814Z" fill="#D90916"/>
</g>
<defs>
<clipPath id="clip0">
<rect x="6.10352e-05" width="28" height="28" fill="white"/>
</clipPath>
</defs>
</svg>
