<svg width="169" height="169" viewBox="0 0 169 169" fill="none" xmlns="http://www.w3.org/2000/svg">
<path opacity="0.05" fill-rule="evenodd" clip-rule="evenodd" d="M84.5 149C120.122 149 149 120.122 149 84.5C149 48.8776 120.122 20 84.5 20C48.8776 20 20 48.8776 20 84.5C20 120.122 48.8776 149 84.5 149ZM84.5 169C131.168 169 169 131.168 169 84.5C169 37.8319 131.168 0 84.5 0C37.8319 0 0 37.8319 0 84.5C0 131.168 37.8319 169 84.5 169Z" fill="white"/>
<path d="M67.185 73.3225H63.0638V77.0725H67.185V73.3225Z" fill="#D90916"/>
<path d="M67.185 82.9389H63.0638V86.6889H67.185V82.9389Z" fill="#D90916"/>
<path d="M88 92.5551H71.3062V96.3051H88V92.5551Z" fill="white"/>
<path d="M67.185 92.5551H63.0638V96.3051H67.185V92.5551Z" fill="white"/>
<path d="M88 102.171H71.3062V105.921H88V102.171Z" fill="white"/>
<path d="M67.185 102.171H63.0638V105.921H67.185V102.171Z" fill="white"/>
<path d="M116 79.033C116 70.7951 109.763 63.9877 101.763 63.0824V53H52V117H105.688V97.782H101.821V94.9769C109.793 94.0452 116 87.2509 116 79.033ZM55.75 56.75H98.0129V62.2441H55.75V56.75ZM94.2039 113.25H55.75V65.9941H90.5911C88.0565 67.8179 86.0734 70.3612 84.9425 73.3226H71.3064V77.0726H84.0119C83.9333 77.7154 83.892 78.3694 83.892 79.033C83.892 80.3799 84.0596 81.6881 84.3735 82.939H71.3064V86.689H85.838C88.2685 91.1499 92.7534 94.3363 98.0127 94.9704V97.7821H94.2039V113.25ZM101.938 101.532V113.25H98.0129H97.954V101.532H101.938ZM99.946 91.337C93.1616 91.337 87.642 85.8175 87.642 79.033C87.642 72.2485 93.1615 66.729 99.946 66.729C106.73 66.729 112.25 72.2486 112.25 79.033C112.25 85.8175 106.73 91.337 99.946 91.337Z" fill="#D90916"/>
<path d="M103.761 74.2598L98.8976 78.5439L96.8498 76.8786L94.4839 79.7881L98.9946 83.4561L106.24 77.0736L103.761 74.2598Z" fill="white"/>
</svg>
