<svg width="28" height="28" viewBox="0 0 28 28" fill="none" xmlns="http://www.w3.org/2000/svg">
<g clip-path="url(#clip0)">
<path d="M23.1698 14.3914L28 9.89813L19.9482 1.67761L16.4161 5.20676L12.115 5.81325L9.9301 4.38322L7.53293 1.98769L0 9.5256L2.58546 12.1418L4.09855 14.7858C3.98787 14.8638 3.88259 14.9511 3.78481 15.0487L2.59301 16.2377C2.1455 16.6842 1.89859 17.2782 1.89787 17.9103C1.89716 18.5425 2.14266 19.1371 2.58913 19.5846C2.94503 19.9414 3.39495 20.1701 3.88303 20.2488C3.8827 20.2648 3.88183 20.2808 3.88183 20.2968C3.88112 20.929 4.12661 21.5236 4.57308 21.9711C4.99007 22.389 5.52557 22.6176 6.07261 22.6579C6.11177 23.205 6.33905 23.7412 6.75588 24.159C7.21749 24.6217 7.8243 24.8531 8.43128 24.8531C8.65911 24.8531 8.88694 24.8204 9.10711 24.7552C9.22305 25.0792 9.41013 25.3763 9.66044 25.6271C10.1069 26.0746 10.7009 26.3215 11.3331 26.3223C11.334 26.3223 11.335 26.3223 11.336 26.3223C11.9669 26.3223 12.5605 26.0769 13.0073 25.631L13.6764 24.9634C13.715 24.925 13.7513 24.8852 13.7866 24.8448L13.9589 24.9969C14.4178 25.4444 15.0146 25.6681 15.6115 25.668C16.2187 25.668 16.8258 25.4365 17.2875 24.9739C17.5405 24.7204 17.7289 24.4195 17.8446 24.0915C18.0595 24.1534 18.2814 24.1846 18.5034 24.1846C19.1105 24.1846 19.7177 23.9531 20.1794 23.4904C20.4799 23.1893 20.6817 22.8267 20.786 22.4429C20.9124 22.4634 21.0401 22.4743 21.1679 22.4743C21.7751 22.4743 22.3822 22.2428 22.844 21.7801C23.369 21.2539 23.5941 20.5404 23.5204 19.8533C23.9377 19.7565 24.3337 19.5461 24.658 19.2212C25.1047 18.7736 25.3503 18.1787 25.3497 17.5463C25.349 16.9139 25.1021 16.3196 24.6544 15.8729L23.1698 14.3914ZM19.9388 4.01539L25.6458 9.84185L24.5266 10.8802L18.8622 5.09706L19.9388 4.01539ZM12.9203 7.33372L17.182 6.76109L17.6944 6.25211L23.3361 12.012L22.0124 13.2239L17.516 8.6081L13.6069 9.21749L11.2361 11.6315C10.8765 11.8278 10.3085 11.8174 9.9733 11.4798C9.65207 11.156 9.65196 10.6292 9.97314 10.3054L12.9203 7.33372ZM3.1733 10.3998L2.31563 9.53194L7.53364 4.31043L8.47503 5.25111L3.1733 10.3998ZM4.26448 18.6371C4.2642 18.6371 4.26388 18.6371 4.2636 18.6371C4.07023 18.6369 3.88845 18.5614 3.75184 18.4245C3.61528 18.2876 3.5402 18.1056 3.54041 17.9123C3.54063 17.7189 3.61621 17.5371 3.75304 17.4005L4.94484 16.2115C5.08156 16.0751 5.26312 16 5.45617 16C5.4565 16 5.45677 16 5.4571 16C5.65048 16.0003 5.83226 16.0758 5.96887 16.2127C6.10548 16.3497 6.18056 16.5316 6.18034 16.725C6.18013 16.9183 6.10466 17.0998 5.96805 17.2364L4.77586 18.4257C4.63914 18.562 4.45758 18.6372 4.26448 18.6371ZM5.7359 20.8109C5.59923 20.674 5.52409 20.4921 5.52431 20.2987C5.52459 20.1053 5.60011 19.9235 5.7371 19.7869L7.1278 18.3994C7.26452 18.263 7.44609 18.1879 7.63913 18.1879C7.63946 18.1879 7.63973 18.1879 7.64006 18.1879C7.83344 18.1882 8.01522 18.2637 8.15183 18.4006C8.4338 18.6832 8.4333 19.1426 8.15068 19.4246L6.75992 20.8121C6.4773 21.0941 6.01792 21.0936 5.7359 20.8109ZM10.3333 21.6126L8.94261 23.0002C8.66009 23.2821 8.20072 23.2816 7.91875 22.9989C7.63678 22.7162 7.63727 22.2568 7.9199 21.9749L9.31066 20.5875C9.59328 20.3055 10.0527 20.306 10.3346 20.5887C10.4712 20.7256 10.5463 20.9075 10.546 21.1009C10.5458 21.2942 10.4703 21.476 10.3333 21.6126ZM12.5162 23.8006L11.8471 24.4682C11.7104 24.6046 11.5288 24.6796 11.3358 24.6796C11.3355 24.6796 11.3352 24.6796 11.3349 24.6796C11.1415 24.6794 10.9597 24.6038 10.8231 24.4669C10.5411 24.1843 10.5416 23.7249 10.8242 23.443L11.4933 22.7754C11.6345 22.6346 11.8197 22.5643 12.0048 22.5643C12.1906 22.5643 12.3762 22.6351 12.5174 22.7766C12.7994 23.0592 12.7989 23.5186 12.5162 23.8006ZM23.4953 18.0609C23.2129 18.344 22.7528 18.3444 22.4698 18.062L19.0933 14.6927L17.9331 15.8553L21.6801 19.5943C21.9632 19.8768 21.9637 20.3369 21.6813 20.6198C21.3988 20.9028 20.9387 20.9033 20.6559 20.6209L16.9088 16.8819L15.7486 18.0446L19.0156 21.3046C19.1528 21.4415 19.2283 21.6235 19.2286 21.8172C19.2288 22.0109 19.1535 22.193 19.0167 22.3302C18.8799 22.4673 18.6979 22.5429 18.5042 22.5431C18.504 22.5431 18.5037 22.5431 18.5034 22.5431C18.31 22.5431 18.1281 22.4678 17.9913 22.3313L17.2842 21.6257C17.2841 21.6256 17.2841 21.6255 17.284 21.6255L14.7242 19.0711L13.564 20.2337L14.2713 20.9395L16.1242 22.7885C16.2611 22.9252 16.3365 23.1071 16.3367 23.3006C16.3369 23.4943 16.2616 23.6764 16.1248 23.8136C15.988 23.9507 15.806 24.0263 15.6124 24.0265C15.6121 24.0265 15.6118 24.0265 15.6115 24.0265C15.4182 24.0265 15.2363 23.9512 15.0994 23.8147L14.3672 23.167C14.3386 22.6027 14.1099 22.0469 13.6804 21.6165C13.2637 21.1989 12.7287 20.9703 12.182 20.9297C12.1419 20.3628 11.903 19.835 11.4975 19.4285C11.092 19.0221 10.5647 18.7819 9.99791 18.7405C9.95854 18.1938 9.73126 17.6581 9.3147 17.2406C8.90952 16.8344 8.38261 16.5943 7.81627 16.5527C7.77591 15.9862 7.53698 15.4588 7.13185 15.0527C6.75637 14.6763 6.27638 14.4425 5.75723 14.3771L4.21351 11.6794L9.79579 6.25824L10.9346 7.00363L8.80704 9.1488C7.85318 10.1106 7.8534 11.6753 8.80764 12.6368C9.77293 13.6094 11.2927 13.5672 12.2041 12.9643L12.2763 12.9166L14.3976 10.7567L16.9312 10.3617L23.4944 17.0356C23.6315 17.1724 23.707 17.3544 23.7073 17.5481C23.7074 17.7417 23.6321 17.9238 23.4953 18.0609Z" fill="#292121"/>
<path d="M26.7025 9.87266L19.9508 2.92278L17.7305 5.12682L24.4726 11.9292L26.7025 9.87266Z" stroke="#D90916" stroke-width="1.8"/>
<path d="M26.7025 9.87266L19.9508 2.92278L17.7305 5.12682L24.4726 11.9292L26.7025 9.87266Z" stroke="#D90916" stroke-width="1.8"/>
<path d="M9.61874 5.11709L3.23573 11.5587L1.25891 9.53254L7.54343 3.20766L9.61874 5.11709Z" stroke="#D90916" stroke-width="1.8"/>
</g>
<defs>
<clipPath id="clip0">
<rect width="28" height="28" fill="white"/>
</clipPath>
</defs>
</svg>
