<svg width="28" height="28" viewBox="0 0 28 28" fill="none" xmlns="http://www.w3.org/2000/svg">
<path d="M13.5827 1.99072L11.3807 2.76364L12.0544 4.68456C11.3795 8.35956 6.18068 12.5528 4.03708 13.9941L0.872495 15.1039C0.582363 15.2089 0.344997 15.4236 0.211385 15.7017C0.0777736 15.9798 0.0585743 16.2993 0.157912 16.5914L3.63385 26.498C3.73866 26.7883 3.95327 27.0259 4.23147 27.1595C4.50967 27.2931 4.82923 27.3122 5.12135 27.2126L7.32343 26.4397C7.57791 26.3504 7.79359 26.1757 7.93379 25.9453C8.07399 25.7149 8.13004 25.4431 8.09241 25.176L7.43747 20.5365C10.4677 20.4258 15.9439 20.7041 18.4298 22.8603L19.1041 24.7811L21.3062 24.0089L13.5827 1.99072ZM5.44947 24.6251L4.29097 21.3225L5.14979 21.0214L5.64781 24.5557L5.44947 24.6251ZM8.64789 18.1846C7.16127 18.1846 6.12702 18.2756 5.99839 18.2876C5.99387 18.2876 5.9895 18.2892 5.98497 18.2898C5.95581 18.2927 5.92795 18.2978 5.89952 18.3029C5.88333 18.3058 5.86699 18.3077 5.85095 18.3114C5.80651 18.3211 5.76268 18.3335 5.7197 18.3484L3.51762 19.1213L2.7447 16.9192L4.94679 16.1463C5.0368 16.1148 5.1226 16.0723 5.20229 16.0199C5.47937 15.837 10.7669 12.317 13.2241 8.02152L17.2582 19.5221C14.4458 18.41 10.9872 18.1846 8.64789 18.1846Z" fill="#292121"/>
<path d="M20.1342 13.5005L20.9156 15.6991C21.3487 15.5452 21.7472 15.3074 22.0885 14.9995C22.4297 14.6916 22.7069 14.3195 22.9043 13.9044C23.1018 13.4893 23.2155 13.0394 23.239 12.5804C23.2626 12.1214 23.1955 11.6622 23.0416 11.2291C22.8877 10.796 22.65 10.3975 22.342 10.0563C22.0341 9.71505 21.662 9.43782 21.2469 9.2404C20.8318 9.04299 20.3819 8.92926 19.9229 8.90572C19.4639 8.88217 19.0047 8.94927 18.5716 9.10318L19.3529 11.302C19.4972 11.2507 19.6503 11.2284 19.8033 11.2362C19.9563 11.2441 20.1063 11.282 20.2447 11.3478C20.383 11.4136 20.5071 11.506 20.6097 11.6198C20.7124 11.7335 20.7916 11.8664 20.8429 12.0107C20.8942 12.1551 20.9166 12.3082 20.9087 12.4612C20.9009 12.6142 20.863 12.7642 20.7972 12.9025C20.7314 13.0409 20.639 13.1649 20.5252 13.2676C20.4115 13.3702 20.2786 13.4495 20.1342 13.5008V13.5005Z" fill="#D90916"/>
<path d="M27.4388 9.66654C26.7115 7.62718 25.205 5.9596 23.2497 5.02967C21.2944 4.09973 19.0501 3.98339 17.0091 4.70617L17.7903 6.90475C19.2481 6.38669 20.852 6.46894 22.2491 7.13343C23.6463 7.79792 24.7222 8.9902 25.2403 10.448C25.7584 11.9058 25.6761 13.5097 25.0116 14.9068C24.3471 16.3039 23.1548 17.3799 21.6971 17.898L22.4784 20.0965C23.489 19.7374 24.4189 19.1827 25.2151 18.4642C26.0113 17.7457 26.6581 16.8774 27.1188 15.9089C27.5794 14.9404 27.8447 13.8906 27.8996 12.8195C27.9545 11.7485 27.7979 10.6771 27.4388 9.66654Z" fill="#D90916"/>
</svg>
