<svg width="28" height="28" viewBox="0 0 28 28" fill="none" xmlns="http://www.w3.org/2000/svg">
<path d="M17.5 9.33325C17.5 8.64102 17.2947 7.96433 16.9102 7.38876C16.5256 6.81319 15.979 6.36458 15.3394 6.09968C14.6999 5.83477 13.9961 5.76546 13.3172 5.90051C12.6383 6.03555 12.0146 6.3689 11.5251 6.85838C11.0357 7.34786 10.7023 7.9715 10.5673 8.65044C10.4322 9.32937 10.5015 10.0331 10.7664 10.6726C11.0313 11.3122 11.4799 11.8588 12.0555 12.2434C12.6311 12.628 13.3078 12.8333 14 12.8333C14.928 12.8322 15.8176 12.4631 16.4737 11.807C17.1299 11.1508 17.499 10.2612 17.5 9.33325ZM14 10.4999C13.7693 10.4999 13.5437 10.4315 13.3519 10.3033C13.16 10.1751 13.0105 9.9929 12.9222 9.77972C12.8339 9.56654 12.8108 9.33196 12.8558 9.10565C12.9008 8.87934 13.0119 8.67146 13.1751 8.5083C13.3382 8.34513 13.5461 8.23402 13.7724 8.189C13.9987 8.14399 14.2333 8.16709 14.4465 8.25539C14.6597 8.3437 14.8419 8.49323 14.9701 8.68509C15.0983 8.87695 15.1667 9.10251 15.1667 9.33325C15.1663 9.64257 15.0433 9.93911 14.8246 10.1578C14.6059 10.3765 14.3093 10.4996 14 10.4999Z" fill="#D90916"/>
<path d="M16.3334 12.8333H11.6667C10.7388 12.8343 9.84915 13.2034 9.19301 13.8596C8.53686 14.5157 8.16777 15.4053 8.16669 16.3332V20.9999C8.16669 21.3093 8.2896 21.6061 8.5084 21.8249C8.72719 22.0437 9.02393 22.1666 9.33335 22.1666H18.6667C18.9761 22.1666 19.2729 22.0437 19.4916 21.8249C19.7104 21.6061 19.8334 21.3093 19.8334 20.9999V16.3332C19.8323 15.4053 19.4632 14.5157 18.807 13.8596C18.1509 13.2034 17.2613 12.8343 16.3334 12.8333ZM17.5 19.8332H10.5V16.3332C10.5004 16.0239 10.6234 15.7274 10.8421 15.5087C11.0608 15.29 11.3574 15.1669 11.6667 15.1666H16.3334C16.6427 15.1669 16.9392 15.29 17.1579 15.5087C17.3766 15.7274 17.4997 16.0239 17.5 16.3332V19.8332Z" fill="#D90916"/>
<path d="M28 12.8333H26.7798C26.503 9.84683 25.1905 7.05114 23.0697 4.93031C20.9489 2.80947 18.1532 1.49702 15.1667 1.22019V0H12.8333V1.22019C9.84683 1.49702 7.05114 2.80947 4.93031 4.93031C2.80947 7.05114 1.49702 9.84683 1.22019 12.8333H0V15.1667H1.22019C1.49702 18.1532 2.80947 20.9489 4.93031 23.0697C7.05114 25.1905 9.84683 26.503 12.8333 26.7798V28H15.1667V26.7798C18.1532 26.503 20.9489 25.1905 23.0697 23.0697C25.1905 20.9489 26.503 18.1532 26.7798 15.1667H28V12.8333ZM15.1667 24.4336V23.3333H12.8333V24.4336C10.4679 24.1656 8.26341 23.1032 6.58012 21.4199C4.89683 19.7366 3.83435 17.5321 3.56635 15.1667H4.66667V12.8333H3.56635C3.83435 10.4679 4.89683 8.26341 6.58012 6.58012C8.26341 4.89683 10.4679 3.83435 12.8333 3.56635V4.66667H15.1667V3.56635C17.5321 3.83435 19.7366 4.89683 21.4199 6.58012C23.1032 8.26341 24.1656 10.4679 24.4336 12.8333H23.3333V15.1667H24.4336C24.1656 17.5321 23.1032 19.7366 21.4199 21.4199C19.7366 23.1032 17.5321 24.1656 15.1667 24.4336Z" fill="#292121"/>
</svg>
