<svg width="169" height="169" viewBox="0 0 169 169" fill="none" xmlns="http://www.w3.org/2000/svg">
<path fill-rule="evenodd" clip-rule="evenodd" d="M84.5 149C120.122 149 149 120.122 149 84.5C149 48.8776 120.122 20 84.5 20C48.8776 20 20 48.8776 20 84.5C20 120.122 48.8776 149 84.5 149ZM84.5 169C131.168 169 169 131.168 169 84.5C169 37.8319 131.168 0 84.5 0C37.8319 0 0 37.8319 0 84.5C0 131.168 37.8319 169 84.5 169Z" fill="#F0F0F0"/>
<path d="M110.661 104.274C113.808 102.426 115.428 98.7792 114.69 95.2056C113.952 91.6319 111.02 88.925 107.399 88.474V87.3332C107.399 86.7441 106.922 86.2666 106.333 86.2666C105.744 86.2666 105.266 86.7441 105.266 87.3332V88.474C101.634 88.9266 98.6971 91.6481 97.9695 95.235C97.2419 98.8219 98.8863 102.473 102.055 104.305C99.7949 105.302 97.9205 107.006 96.714 109.161C95.0809 106.448 92.5981 104.349 89.6506 103.191C93.4793 101.071 95.3892 96.6289 94.294 92.3913C93.1989 88.1537 89.3762 85.1934 84.9995 85.1934C80.6228 85.1934 76.8001 88.1537 75.705 92.3913C74.6098 96.6289 76.5196 101.071 80.3484 103.191C77.4009 104.349 74.9181 106.448 73.285 109.161C72.0785 107.006 70.2041 105.302 67.9444 104.305C71.1127 102.473 72.7571 98.8219 72.0295 95.235C71.3019 91.6482 68.3648 88.9267 64.7329 88.474V87.3332C64.7329 86.7441 64.2553 86.2666 63.6663 86.2666C63.0773 86.2666 62.5997 86.7441 62.5997 87.3332V88.474C58.9786 88.9248 56.0467 91.6319 55.309 95.2056C54.5713 98.7794 56.1914 102.426 59.3378 104.274C56.2254 105.559 53.8948 108.228 53.0409 111.486C52.9178 112.094 53.0759 112.726 53.4711 113.205C53.8808 113.709 54.4961 114.001 55.1456 114H114.853C115.503 114.001 116.118 113.709 116.528 113.205C116.923 112.726 117.081 112.094 116.958 111.486C116.104 108.228 113.774 105.559 110.661 104.274ZM99.9327 96.9331C99.9327 94.3447 101.492 92.0109 103.884 91.0203C106.275 90.0297 109.028 90.5773 110.858 92.4077C112.689 94.238 113.236 96.9908 112.246 99.3822C111.255 101.774 108.921 103.333 106.333 103.333C102.8 103.329 99.9366 100.466 99.9327 96.9331ZM77.5329 94.7998C77.5329 90.6761 80.8759 87.3332 84.9995 87.3332C89.1231 87.3332 92.4661 90.6762 92.4661 94.7998C92.4661 98.9234 89.1232 102.266 84.9995 102.266C80.8778 102.262 77.5376 98.9216 77.5329 94.7998ZM57.2664 96.9331C57.2664 94.3447 58.8256 92.0109 61.2172 91.0203C63.6087 90.0297 66.3614 90.5773 68.1918 92.4077C70.0221 94.238 70.5697 96.9908 69.5791 99.3822C68.5885 101.774 66.2549 103.333 63.6663 103.333C60.1333 103.329 57.2702 100.466 57.2664 96.9331ZM55.1315 111.913C55.833 108.479 59.7867 105.466 63.5923 105.466C67.5069 105.466 71.3557 108.499 72.0485 111.869L55.1315 111.913ZM74.4308 111.866C75.2981 108.402 80.0995 104.4 84.9995 104.4C89.8995 104.4 94.7009 108.402 95.5682 111.866H74.4308ZM114.853 111.866H97.951C98.6453 108.497 102.493 105.466 106.407 105.466C110.212 105.466 114.166 108.479 114.876 111.855C114.87 111.862 114.862 111.866 114.853 111.866Z" fill="#D90916"/>
<path d="M62.5998 75.5996C62.5998 76.1887 63.0774 76.6662 63.6664 76.6662C64.2554 76.6662 64.733 76.1886 64.733 75.5996V72.3996C64.733 71.8105 64.2554 71.333 63.6664 71.333C63.0774 71.333 62.5998 71.8105 62.5998 72.3996V75.5996Z" fill="#292121"/>
<path d="M62.5998 83.0664C62.5998 83.6555 63.0774 84.133 63.6664 84.133C64.2554 84.133 64.733 83.6555 64.733 83.0664V79.8664C64.733 79.2773 64.2554 78.7998 63.6664 78.7998C63.0774 78.7998 62.5998 79.2774 62.5998 79.8664V83.0664Z" fill="#D90916"/>
<path d="M107.399 72.3996C107.399 71.8105 106.922 71.333 106.333 71.333C105.744 71.333 105.266 71.8106 105.266 72.3996V75.5996C105.266 76.1887 105.744 76.6662 106.333 76.6662C106.922 76.6662 107.399 76.1886 107.399 75.5996V72.3996Z" fill="#292121"/>
<path d="M106.333 78.7998C105.744 78.7998 105.266 79.2774 105.266 79.8664V83.0664C105.266 83.6555 105.744 84.133 106.333 84.133C106.922 84.133 107.399 83.6555 107.399 83.0664V79.8664C107.399 79.2774 106.922 78.7998 106.333 78.7998Z" fill="#D90916"/>
<path d="M84.9996 50C84.4105 50 83.933 50.4776 83.933 51.0666V52.1874C77.1264 52.7199 71.7197 58.1267 71.1871 64.9332H64.7331C63.5554 64.9344 62.601 65.8889 62.5998 67.0666V68.1332C62.5998 68.7223 63.0774 69.1998 63.6664 69.1998C64.2554 69.1998 64.733 68.7222 64.733 68.1332V67.0666H71.187C71.7195 73.8732 77.1263 79.2799 83.9329 79.8125V81.9997C83.9329 82.5889 84.4105 83.0663 84.9995 83.0663C85.5885 83.0663 86.0661 82.5887 86.0661 81.9997V79.8124C92.8727 79.2799 98.2794 73.8731 98.812 67.0665H105.266V68.1331C105.266 68.7222 105.744 69.1997 106.333 69.1997C106.922 69.1997 107.399 68.7221 107.399 68.1331V67.0665C107.398 65.8887 106.444 64.9344 105.266 64.9331H98.8119C98.2794 58.1266 92.8725 52.7199 86.066 52.1872V51.0666C86.0662 50.4776 85.5887 50 84.9996 50ZM83.933 67.0665V71.2253C81.8405 70.794 80.2055 69.159 79.7742 67.0665H83.933ZM79.7742 64.9332C80.2055 62.8408 81.8405 61.2058 83.933 60.7744V64.9332H79.7742ZM86.0662 67.0665H90.2251C89.7937 69.159 88.1587 70.794 86.0662 71.2253V67.0665ZM86.0662 64.9332V60.7744C88.1587 61.2058 89.7937 62.8408 90.2251 64.9332H86.0662ZM83.933 54.3207V58.6184C80.6631 59.0952 78.095 61.6634 77.6182 64.9332H73.3205C73.8418 59.3022 78.3019 54.8421 83.933 54.3207ZM73.3205 67.0665H77.6182C78.0949 70.3363 80.6631 72.9044 83.933 73.3813V77.679C78.3019 77.1576 73.8418 72.6976 73.3205 67.0665ZM86.0662 77.679V73.3813C89.3361 72.9046 91.9042 70.3363 92.381 67.0665H96.6788C96.1575 72.6976 91.6973 77.1576 86.0662 77.679ZM96.6788 64.9332H92.381C91.9043 61.6634 89.3361 59.0953 86.0662 58.6184V54.3207C91.6973 54.8421 96.1575 59.3022 96.6788 64.9332Z" fill="#292121"/>
</svg>
