<svg width="28" height="28" viewBox="0 0 28 28" fill="none" xmlns="http://www.w3.org/2000/svg">
<path d="M26.8334 11.8428H24.5V9.50943C24.5 7.52608 22.9834 6.00943 21 6.00943V4.49278C21 2.15943 18.6666 0.526136 16.45 1.10943L0.816648 6.00943C0.35 6.24278 0 6.70949 0 7.17614V25.8428C0 26.5428 0.466648 27.0094 1.16665 27.0094H21C22.9834 27.0094 24.5 25.4928 24.5 23.5094V21.1761H26.8334C27.5334 21.1761 28 20.7095 28 20.0095V13.0095C28 12.3095 27.5334 11.8428 26.8334 11.8428ZM17.15 3.44278C17.85 3.20943 18.6666 3.79278 18.6666 4.60943V6.00943H8.86665L17.15 3.44278ZM22.1666 23.5095C22.1666 24.2095 21.7 24.6761 21 24.6761H2.33335V8.34278H21C21.7 8.34278 22.1666 8.80943 22.1666 9.50943V11.8428C20.1833 11.8428 18.6666 13.3594 18.6666 15.3428V17.6761C18.6666 19.6595 20.1833 21.1761 22.1666 21.1761V23.5095ZM25.6666 18.8428H22.1666C21.4666 18.8428 21 18.3761 21 17.6761V15.3428C21 14.6428 21.4666 14.1761 22.1666 14.1761H25.6666V18.8428Z" fill="#292121"/>
<path d="M15.1666 14.1762V13.0095C15.1666 11.7262 14.1166 10.6762 12.8333 10.6762V9.50952H10.5V10.6762C9.21662 10.6762 8.16663 11.7262 8.16663 13.0095V15.3429C8.16663 16.6262 9.21662 17.6762 10.5 17.6762H12.8333V20.0096H10.5V18.8429H8.16663V20.0096C8.16663 21.2929 9.21662 22.3429 10.5 22.3429V23.5096H12.8333V22.3429C14.1167 22.3429 15.1667 21.2929 15.1667 20.0096V17.6762C15.1667 16.3928 14.1167 15.3428 12.8333 15.3428H10.5V13.0095H12.8333V14.1761H15.1666V14.1762Z" fill="#D90916"/>
<path d="M23.3334 17.6761C23.9777 17.6761 24.5 17.1537 24.5 16.5094C24.5 15.8651 23.9777 15.3428 23.3334 15.3428C22.6891 15.3428 22.1667 15.8651 22.1667 16.5094C22.1667 17.1537 22.6891 17.6761 23.3334 17.6761Z" fill="#292121"/>
</svg>
