<svg width="28" height="28" viewBox="0 0 28 28" fill="none" xmlns="http://www.w3.org/2000/svg">
<path d="M18 23.2024C21.7582 21.635 24.4 17.9262 24.4 13.6C24.4 7.85619 19.7438 3.19998 14.0001 3.19998C12.5826 3.19998 11.2315 3.48409 10.0001 3.9976V0H7.60004V5.40214C5.1653 7.30565 3.60004 10.2699 3.60004 13.6C3.60004 17.9262 6.24182 21.6351 10.0001 23.2024V25.6H6.00005V28H22V25.6H18V23.2024ZM6 13.6C6 9.18881 9.58881 5.6 14 5.6C18.4112 5.6 22 9.18881 22 13.6C22 18.0112 18.4112 21.6 14 21.6C9.58881 21.6 6 18.0112 6 13.6ZM15.6 25.6H12.4V23.8775C12.9215 23.958 13.4559 24 14 24C14.5442 24 15.0784 23.9581 15.6 23.8775V25.6Z" fill="#292121"/>
<path d="M14 8.00012C10.9072 8.00012 8.40002 10.5073 8.40002 13.6001C8.40002 16.6929 10.9072 19.2001 14 19.2001C17.0928 19.2001 19.6 16.6929 19.6 13.6001C19.6 10.5073 17.0928 8.00012 14 8.00012ZM14 16.8001C12.2355 16.8001 10.8 15.3646 10.8 13.6001C10.8 11.8357 12.2356 10.4001 14 10.4001C15.7645 10.4001 17.2 11.8357 17.2 13.6001C17.2 15.3646 15.7645 16.8001 14 16.8001Z" fill="#D90916"/>
</svg>
